<svg xmlns="http://www.w3.org/2000/svg">

	<symbol id="bars" viewBox="0 0 448 376">
		<path fill="currentColor" d="M436,72H12C5.4,72,0,65.1,0,56.6V15.4C0,6.9,5.4,0,12,0h424c6.6,0,12,6.9,12,15.4v41.1C448,65.1,442.6,72,436,72z"/>
		<path fill="currentColor" class="bars2" d="M436,224H121c-6.6,0-12-6.9-12-15.4v-41.1c0-8.5,5.4-15.4,12-15.4h315c6.6,0,12,6.9,12,15.4v41.1 C448,217.1,442.6,224,436,224z"/>
		<path fill="currentColor" class="bars3" d="M436,376H12c-6.6,0-12-6.9-12-15.4v-41.1c0-8.5,5.4-15.4,12-15.4h424c6.6,0,12,6.9,12,15.4v41.1 C448,369.1,442.6,376,436,376z"/>
	</symbol>

	<symbol id="search" viewBox="0 0 512 512">
		<path fill="currentColor" d="M508.5 468.9L387.1 347.5c-2.3-2.3-5.3-3.5-8.5-3.5h-13.2c31.5-36.5 50.6-84 50.6-136C416 93.1 322.9 0 208 0S0 93.1 0 208s93.1 208 208 208c52 0 99.5-19.1 136-50.6v13.2c0 3.2 1.3 6.2 3.5 8.5l121.4 121.4c4.7 4.7 12.3 4.7 17 0l22.6-22.6c4.7-4.7 4.7-12.3 0-17zM208 368c-88.4 0-160-71.6-160-160S119.6 48 208 48s160 71.6 160 160-71.6 160-160 160z" class=""></path>
	</symbol>

	<symbol id="arrow-down" viewBox="0 0 448 512">
		<path fill="currentColor" d="M441.9 250.1l-19.8-19.8c-4.7-4.7-12.3-4.7-17 0L250 385.4V44c0-6.6-5.4-12-12-12h-28c-6.6 0-12 5.4-12 12v341.4L42.9 230.3c-4.7-4.7-12.3-4.7-17 0L6.1 250.1c-4.7 4.7-4.7 12.3 0 17l209.4 209.4c4.7 4.7 12.3 4.7 17 0l209.4-209.4c4.7-4.7 4.7-12.3 0-17z" class=""></path>
	</symbol>

	<symbol id="arrow-right" viewBox="0 0 448 512">
		<path fill="currentColor" d="M218.101 38.101L198.302 57.9c-4.686 4.686-4.686 12.284 0 16.971L353.432 230H12c-6.627 0-12 5.373-12 12v28c0 6.627 5.373 12 12 12h341.432l-155.13 155.13c-4.686 4.686-4.686 12.284 0 16.971l19.799 19.799c4.686 4.686 12.284 4.686 16.971 0l209.414-209.414c4.686-4.686 4.686-12.284 0-16.971L235.071 38.101c-4.686-4.687-12.284-4.687-16.97 0z" class=""></path>
	</symbol>

	<symbol id="arrow-left" viewBox="0 0 448 512">
		<path fill="currentColor" d="M229.9 473.899l19.799-19.799c4.686-4.686 4.686-12.284 0-16.971L94.569 282H436c6.627 0 12-5.373 12-12v-28c0-6.627-5.373-12-12-12H94.569l155.13-155.13c4.686-4.686 4.686-12.284 0-16.971L229.9 38.101c-4.686-4.686-12.284-4.686-16.971 0L3.515 247.515c-4.686 4.686-4.686 12.284 0 16.971L212.929 473.9c4.686 4.686 12.284 4.686 16.971-.001z" class=""></path>
	</symbol>

	<symbol id="external-link" viewBox="0 0 512 512">
		<path fill="currentColor" d="M497.6,0,334.4.17A14.4,14.4,0,0,0,320,14.57V47.88a14.4,14.4,0,0,0,14.69,14.4l73.63-2.72,2.06,2.06L131.52,340.49a12,12,0,0,0,0,17l23,23a12,12,0,0,0,17,0L450.38,101.62l2.06,2.06-2.72,73.63A14.4,14.4,0,0,0,464.12,192h33.31a14.4,14.4,0,0,0,14.4-14.4L512,14.4A14.4,14.4,0,0,0,497.6,0ZM432,288H416a16,16,0,0,0-16,16V458a6,6,0,0,1-6,6H54a6,6,0,0,1-6-6V118a6,6,0,0,1,6-6H208a16,16,0,0,0,16-16V80a16,16,0,0,0-16-16H48A48,48,0,0,0,0,112V464a48,48,0,0,0,48,48H400a48,48,0,0,0,48-48V304A16,16,0,0,0,432,288Z" class=""></path>
	</symbol>

	<symbol id="plus" viewBox="0 0 384 512">
		<path fill="currentColor" d="M368 224H224V80c0-8.84-7.16-16-16-16h-32c-8.84 0-16 7.16-16 16v144H16c-8.84 0-16 7.16-16 16v32c0 8.84 7.16 16 16 16h144v144c0 8.84 7.16 16 16 16h32c8.84 0 16-7.16 16-16V288h144c8.84 0 16-7.16 16-16v-32c0-8.84-7.16-16-16-16z" class=""></path>
	</symbol>

	<symbol id="minus" viewBox="0 0 384 512">
		<path fill="currentColor" d="M368 224H16c-8.84 0-16 7.16-16 16v32c0 8.84 7.16 16 16 16h352c8.84 0 16-7.16 16-16v-32c0-8.84-7.16-16-16-16z" class=""></path>
	</symbol>

	<symbol id="facebook-f" viewBox="0 0 320 512">
		<path fill="currentColor" d="M279.14 288l14.22-92.66h-88.91v-60.13c0-25.35 12.42-50.06 52.24-50.06h40.42V6.26S260.43 0 225.36 0c-73.22 0-121.08 44.38-121.08 124.72v70.62H22.89V288h81.39v224h100.17V288z" class=""></path>
	</symbol>

	<symbol id="instagram" viewBox="0 0 448 512">
		<path fill="currentColor" d="M224.1 141c-63.6 0-114.9 51.3-114.9 114.9s51.3 114.9 114.9 114.9S339 319.5 339 255.9 287.7 141 224.1 141zm0 189.6c-41.1 0-74.7-33.5-74.7-74.7s33.5-74.7 74.7-74.7 74.7 33.5 74.7 74.7-33.6 74.7-74.7 74.7zm146.4-194.3c0 14.9-12 26.8-26.8 26.8-14.9 0-26.8-12-26.8-26.8s12-26.8 26.8-26.8 26.8 12 26.8 26.8zm76.1 27.2c-1.7-35.9-9.9-67.7-36.2-93.9-26.2-26.2-58-34.4-93.9-36.2-37-2.1-147.9-2.1-184.9 0-35.8 1.7-67.6 9.9-93.9 36.1s-34.4 58-36.2 93.9c-2.1 37-2.1 147.9 0 184.9 1.7 35.9 9.9 67.7 36.2 93.9s58 34.4 93.9 36.2c37 2.1 147.9 2.1 184.9 0 35.9-1.7 67.7-9.9 93.9-36.2 26.2-26.2 34.4-58 36.2-93.9 2.1-37 2.1-147.8 0-184.8zM398.8 388c-7.8 19.6-22.9 34.7-42.6 42.6-29.5 11.7-99.5 9-132.1 9s-102.7 2.6-132.1-9c-19.6-7.8-34.7-22.9-42.6-42.6-11.7-29.5-9-99.5-9-132.1s-2.6-102.7 9-132.1c7.8-19.6 22.9-34.7 42.6-42.6 29.5-11.7 99.5-9 132.1-9s102.7-2.6 132.1 9c19.6 7.8 34.7 22.9 42.6 42.6 11.7 29.5 9 99.5 9 132.1s2.7 102.7-9 132.1z" class=""></path>
	</symbol>

	<symbol id="youtube" viewBox="0 0 576 512">
		<path fill="currentColor" d="M549.655 124.083c-6.281-23.65-24.787-42.276-48.284-48.597C458.781 64 288 64 288 64S117.22 64 74.629 75.486c-23.497 6.322-42.003 24.947-48.284 48.597-11.412 42.867-11.412 132.305-11.412 132.305s0 89.438 11.412 132.305c6.281 23.65 24.787 41.5 48.284 47.821C117.22 448 288 448 288 448s170.78 0 213.371-11.486c23.497-6.321 42.003-24.171 48.284-47.821 11.412-42.867 11.412-132.305 11.412-132.305s0-89.438-11.412-132.305zm-317.51 213.508V175.185l142.739 81.205-142.739 81.201z" class=""></path>
	</symbol>

	<symbol id="chevron-right" viewBox="0 0 320 512">
		<path fill="currentColor" d="M285.476 272.971L91.132 467.314c-9.373 9.373-24.569 9.373-33.941 0l-22.667-22.667c-9.357-9.357-9.375-24.522-.04-33.901L188.505 256 34.484 101.255c-9.335-9.379-9.317-24.544.04-33.901l22.667-22.667c9.373-9.373 24.569-9.373 33.941 0L285.475 239.03c9.373 9.372 9.373 24.568.001 33.941z" class=""></path>
	</symbol>

	<symbol id="square" viewBox="0 0 448 512">
		<path fill="currentColor" d="M400 32H48C21.5 32 0 53.5 0 80v352c0 26.5 21.5 48 48 48h352c26.5 0 48-21.5 48-48V80c0-26.5-21.5-48-48-48z"></path>
	</symbol>

</svg>